<?xml version="1.0" encoding="UTF-8"?>
<!DOCTYPE svg PUBLIC "-//W3C//DTD SVG 1.1//EN" "http://www.w3.org/Graphics/SVG/1.1/DTD/svg11.dtd">
<svg xmlns="http://www.w3.org/2000/svg" version="1.1" width="10px" height="14px" style="shape-rendering:geometricPrecision; text-rendering:geometricPrecision; image-rendering:optimizeQuality; fill-rule:evenodd; clip-rule:evenodd" xmlns:xlink="http://www.w3.org/1999/xlink">
<g><path style="opacity:0.67" fill="#414141" d="M -0.5,-0.5 C 2.83333,-0.5 6.16667,-0.5 9.5,-0.5C 9.5,3.83333 9.5,8.16667 9.5,12.5C 7.80137,12.3796 6.13471,12.0463 4.5,11.5C 2.82946,11.6682 1.49612,12.3349 0.5,13.5C 0.166667,13.5 -0.166667,13.5 -0.5,13.5C -0.5,8.83333 -0.5,4.16667 -0.5,-0.5 Z M 0.5,1.5 C 3.16667,1.5 5.83333,1.5 8.5,1.5C 8.66463,4.51838 8.49796,7.51838 8,10.5C 5.66667,9.16667 3.33333,9.16667 1,10.5C 0.50204,7.51838 0.335374,4.51838 0.5,1.5 Z"/></g>
</svg>
